<svg width="120" height="120" viewBox="0 0 120 120" fill="none" xmlns="http://www.w3.org/2000/svg">
<rect width="120" height="120" rx="32" fill="url(#paint0_linear_122_49)"/>
<path d="M60 40C46.215 40 35 51.215 35 65C34.9968 68.8584 35.8966 72.6641 37.6275 76.1125C38.0525 76.9625 38.9175 77.5 39.865 77.5H80.1325C81.08 77.5 81.9475 76.9625 82.3725 76.1125C84.1034 72.6641 85.0033 68.8584 85 65C85 51.215 73.785 40 60 40ZM72.555 52.555L62.65 67.65C62.3745 68.0708 62.0186 68.4332 61.6028 68.7163C61.187 68.9994 60.7195 69.1977 60.2269 69.2999C59.7344 69.4021 59.2265 69.4061 58.7325 69.3118C58.2384 69.2174 57.7677 69.0265 57.3475 68.75C56.8157 68.4022 56.3789 67.9274 56.0766 67.3685C55.7743 66.8096 55.616 66.1842 55.616 65.5487C55.616 64.9133 55.7743 64.2879 56.0766 63.729C56.3789 63.1701 56.8157 62.6953 57.3475 62.3475L72.4425 52.4425C72.4608 52.4312 72.4828 52.4274 72.5039 52.4321C72.5249 52.4368 72.5432 52.4495 72.555 52.4675C72.5629 52.4807 72.5671 52.4958 72.5671 52.5113C72.5671 52.5267 72.5629 52.5418 72.555 52.555V52.555Z" fill="white"/>
<defs>
<linearGradient id="paint0_linear_122_49" x1="0" y1="0" x2="120" y2="120" gradientUnits="userSpaceOnUse">
<stop stop-color="#F98EB2"/>
<stop offset="1" stop-color="#BA1938"/>
</linearGradient>
</defs>
</svg>
